<?xml version="1.0" encoding="iso-8859-1"?>
<!-- Generator: Adobe Illustrator 19.0.0, SVG Export Plug-In . SVG Version: 6.00 Build 0)  -->
<svg version="1.1" id="Layer_1" xmlns="http://www.w3.org/2000/svg" xmlns:xlink="http://www.w3.org/1999/xlink" x="0px" y="0px"
	 viewBox="0 0 512 512" style="enable-background:new 0 0 512 512;" xml:space="preserve">
<g>
	<path style="fill:#BEE294;" d="M256.573,97.475c6.31-27.854,4.658-57.346-4.727-84.382c-1.114-3.21-2.366-6.442-4.513-9.12
		c-0.978-1.219-2.171-2.316-3.513-3.159c-2.544-1.6-5.968-0.761-7.443,1.801c-8.159,14.173-13.307,29.955-15.011,46.084
		c-2.106,19.93-2.712,36.716,4.448,55.521c1.418,3.727,3.258,7.603,6.753,9.702c4.666,2.802,11.068,1.456,15.306-1.918
		C252.114,108.631,255.4,102.655,256.573,97.475z"/>
	<path style="fill:#BEE294;" d="M254.839,117.385c-6.31-27.854,6.302-77.256,15.687-104.292c1.114-3.21,2.366-6.442,4.513-9.12
		c0.978-1.219,2.171-2.316,3.513-3.159c2.544-1.6,5.968-0.761,7.443,1.801c8.159,14.173,13.307,29.955,15.011,46.084
		c2.106,19.93-8.248,56.626-15.408,75.431c-1.418,3.727-3.258,7.603-6.753,9.702c-4.666,2.802-11.068,1.456-15.306-1.918
		C259.3,128.541,256.013,122.564,254.839,117.385z"/>
</g>
<path style="fill:#84AA52;" d="M267.76,156.478c67.963-43.687,82.735-115.913,85.181-131.451c0.239-1.513-1.124-2.783-2.619-2.448
	c-11.574,2.59-54.118,16.437-91.043,84.322c-6.54,12.023-16.639,40.465-21.686,53.188c-0.928,2.338-1.871,4.755-1.376,7.336
	c0.218,1.136,0.765,2.217,1.649,2.963c2.711,2.289,6.326,0.501,9.116-1.252C254.014,164.72,260.777,160.967,267.76,156.478z"/>
<g>
	<path style="fill:#97C55E;" d="M315.799,166.748c14.032-6.324,55.45-27.672,73.231-36.054c1.555-0.733,3.298,0.552,3.078,2.256
		c-3.505,27.209-15.915,53.218-34.922,73.009c-4.271,4.447-21.61,17.051-28.168,18.625c0,0-50.325,12.068-75.503,5.443l25.51-56.983
		L315.799,166.748z"/>
	<path style="fill:#97C55E;" d="M202.711,166.748c-14.032-6.324-55.45-27.672-73.231-36.054c-1.555-0.733-3.298,0.552-3.078,2.256
		c3.505,27.209,15.915,53.218,34.922,73.009c4.271,4.447,21.61,17.051,28.168,18.625c0,0,50.325,12.068,75.503,5.443l-25.51-56.983
		L202.711,166.748z"/>
	<path style="fill:#97C55E;" d="M274.736,177.399c2.014-1.688,3.723-3.602,4.929-5.522c4.586-7.294-1.875-22.991-4.584-30.23
		c-3.316-8.862-8.436-16.592-12.087-25.242c-3.913-9.269-8.526-18.238-13.773-26.824c-8.942-14.631-19.719-28.138-31.922-40.23
		c-8.579-8.5-17.861-16.346-27.801-23.265c-0.485-0.338-5.563-3.299-8.879-5.381c-1.377-0.864-3.208,0.021-3.385,1.635
		c-1.532,13.974-2.898,65.956,50.299,122.122c8.535,9.01,13.561,19.645,20.695,29.781c2.031,2.886,4.18,5.876,7.332,7.511
		C261.593,184.885,269.284,181.97,274.736,177.399z"/>
</g>
<path style="fill:#BEE294;" d="M243.019,199.758C294.364,105.362,364.756,68.392,380.831,60.91c1.529-0.712,3.243,0.512,3.067,2.189
	c-1.847,17.593-15.008,94.754-105.911,153.185c-4.214,2.709-7.693,5.584-12.431,7.21c-4.738,1.626-9.98,2.05-14.769,0.577
	s-9.044-4.977-10.853-9.648C238.126,209.754,240.625,204.158,243.019,199.758z"/>
<path style="fill:#84AA52;" d="M266.75,213.821C239.485,107.641,165.187,64.492,149.647,56.495
	c-1.393-0.717-3.066,0.229-3.158,1.794c-0.869,14.827,0.159,79.421,73.226,157.43c4.859,5.188,8.208,10.111,14.929,12.422
	c5.656,1.945,11.847,1.021,17.753,0.076c2.69-0.43,5.409-0.869,7.921-1.922s4.836-2.797,6.042-5.239
	C267.567,218.614,267.427,216.46,266.75,213.821z"/>
<path style="fill:#FFD975;" d="M286.913,511.999h-61.826c-60.994,0-110.898-49.904-110.898-110.898v-72.819
	c0-60.994,49.904-110.898,110.898-110.898h61.826c60.994,0,110.898,49.904,110.898,110.898v72.819
	C397.811,462.096,347.907,511.999,286.913,511.999z"/>
<g>
	<path style="fill:#FFE6A3;" d="M260.472,467.121c-2,0-4.001-0.763-5.528-2.289l-94.031-94.03c-3.053-3.054-3.053-8.002,0-11.055
		c3.054-3.052,8.002-3.052,11.055,0l94.031,94.03c3.053,3.054,3.053,8.002,0,11.055
		C264.473,466.358,262.471,467.121,260.472,467.121z"/>
	<path style="fill:#FFE6A3;" d="M352.72,374.873c-2,0-4.001-0.763-5.528-2.289l-94.031-94.031c-3.053-3.054-3.053-8.002,0-11.055
		c3.054-3.052,8.002-3.052,11.055,0l94.031,94.031c3.053,3.054,3.053,8.002,0,11.055C356.721,374.109,354.72,374.873,352.72,374.873
		z"/>
	<path style="fill:#FFE6A3;" d="M340.051,456.827c-2,0-4.001-0.763-5.528-2.289l-33.062-33.062c-3.053-3.054-3.053-8.002,0-11.055
		c3.054-3.052,8.002-3.052,11.055,0l33.062,33.062c3.053,3.054,3.053,8.002,0,11.055
		C344.052,456.064,342.051,456.827,340.051,456.827z"/>
	<path style="fill:#FFE6A3;" d="M289.574,406.351c-2,0-4.001-0.763-5.528-2.289l-115.609-115.61c-3.053-3.054-3.053-8.002,0-11.055
		c3.054-3.052,8.002-3.052,11.055,0l115.61,115.61c3.053,3.054,3.053,8.002,0,11.055
		C293.575,405.587,291.574,406.351,289.574,406.351z"/>
</g>
<path style="opacity:0.1;fill:#FE6D41;enable-background:new    ;" d="M278.812,512h8.101c60.994,0,110.898-49.905,110.898-110.898
	v-72.819c0-23.078-7.149-44.565-19.336-62.366C365.801,355.138,334.578,442.066,278.812,512z"/>
<g>
</g>
<g>
</g>
<g>
</g>
<g>
</g>
<g>
</g>
<g>
</g>
<g>
</g>
<g>
</g>
<g>
</g>
<g>
</g>
<g>
</g>
<g>
</g>
<g>
</g>
<g>
</g>
<g>
</g>
</svg>
